PathFileType	4	(X/Y/Z)	C:/Users/opensim2020/Desktop/walking_exp_matlab/subject03_walking04_straight_02.trc	
DataRate	CameraRate	NumFrames	NumMarkers	Units	OrigDataRate	OrigDataStartFrame	OrigNumFrames	
100.00	100.00	7	51	mm	100.00	1540	259	
Frame#	Time	LFHD			RFHD			LBHD			RBHD			C7			T10			CLAV			STRN			RBAK			LSHO			LUPA			LELB			LFRM			LWRA			LWRB			LFIN			RSHO			RUPA			RELB			RFRM			RWRA			RWRB			RFIN			LASI			RASI			LPSI			RPSI			LTHI			LKNE			LTIB			LANK			LHEE			LTOE			RTHI			RKNE			RTIB			RANK			RHEE			RTOE			*39			*40			*41			*42			*43			*44			*45			*46			*47			*48			*49			*50			
		X1	Y1	Z1	X2	Y2	Z2	X3	Y3	Z3	X4	Y4	Z4	X5	Y5	Z5	X6	Y6	Z6	X7	Y7	Z7	X8	Y8	Z8	X9	Y9	Z9	X10	Y10	Z10	X11	Y11	Z11	X12	Y12	Z12	X13	Y13	Z13	X14	Y14	Z14	X15	Y15	Z15	X16	Y16	Z16	X17	Y17	Z17	X18	Y18	Z18	X19	Y19	Z19	X20	Y20	Z20	X21	Y21	Z21	X22	Y22	Z22	X23	Y23	Z23	X24	Y24	Z24	X25	Y25	Z25	X26	Y26	Z26	X27	Y27	Z27	X28	Y28	Z28	X29	Y29	Z29	X30	Y30	Z30	X31	Y31	Z31	X32	Y32	Z32	X33	Y33	Z33	X34	Y34	Z34	X35	Y35	Z35	X36	Y36	Z36	X37	Y37	Z37	X38	Y38	Z38	X39	Y39	Z39	X40	Y40	Z40	X41	Y41	Z41	X42	Y42	Z42	X43	Y43	Z43	X44	Y44	Z44	X45	Y45	Z45	X46	Y46	Z46	X47	Y47	Z47	X48	Y48	Z48	X49	Y49	Z49	X50	Y50	Z50	X51	Y51	Z51	

1	0.000	1601.17114	1467.50305	1613.80859	1469.21887	1486.09082	1620.04065	1612.88538	1594.41833	1566.86743	1482.83435	1607.93774	1573.32129	1555.80225	1631.48193	1413.16638	1551.39246	1668.25159	1099.81665	1543.62244	1509.75793	1336.81238	1550.57043	1468.53918	1171.01575	1464.59192	1694.00818	1237.94104	1700.59705	1539.54822	1376.77234	1786.30212	1501.32947	1195.57373	1807.48596	1453.72205	1085.38171	1801.38232	1369.17896	988.11877	1764.74329	1295.03345	899.03827	1816.20410	1312.18237	890.45313	1804.60962	1251.38989	834.78656	1388.59741	1571.19812	1359.63391	1318.95190	1589.14844	1136.89990	1307.31775	1581.14136	1023.80280	1308.14038	1571.50342	887.08667	1345.47144	1545.76819	791.30969	1302.37158	1577.96838	786.59497	1314.48267	1560.08984	714.68750	1674.81616	1506.59875	939.13251	1435.39380	1497.63794	932.85797	1614.87231	1665.25500	963.27588	1467.86438	1659.81909	959.89502	1703.85840	1597.25244	641.57507	1663.77356	1624.86157	466.05951	1662.27026	1710.07080	287.66562	1618.02283	1763.10901	83.50343	1578.42297	1804.96411	52.20506	1599.98413	1612.43372	34.78779	1399.40405	1478.23975	639.86877	1449.20117	1399.98303	481.16702	1448.98071	1405.13257	292.39795	1498.70178	1395.92004	77.75974	1548.32202	1440.31348	41.95267	1530.85901	1259.48096	51.64975	1562.96924	1556.93298	1674.57898																																	 
2	0.010	1601.59583	1458.26514	1612.64319	1469.74963	1476.93323	1618.69788	1613.62634	1585.01929	1565.30554	1483.45251	1598.65881	1571.46899	1556.63550	1621.95386	1411.93811	1551.73193	1659.41785	1098.62158	1544.42358	1500.15552	1335.39734	1551.44263	1459.55859	1169.65625	1465.28638	1684.70569	1236.91479	1701.35132	1529.77148	1375.22620	1786.88904	1491.86206	1193.92700	1807.97729	1444.65869	1083.50879	1800.87390	1359.40674	987.27252	1762.93677	1284.68445	899.31714	1814.55017	1301.19824	890.16638	1802.05530	1239.66663	835.56714	1389.27258	1561.55408	1358.33472	1319.93738	1580.01538	1135.58313	1308.40540	1572.40955	1022.45319	1309.54785	1562.84717	885.71216	1347.19983	1537.15112	789.93958	1303.94849	1569.38501	785.19934	1316.43298	1551.58508	713.34967	1675.58679	1498.40149	937.87531	1436.11401	1488.70911	931.38049	1615.18079	1656.78308	962.02301	1468.16394	1650.95544	958.57086	1704.40149	1590.74072	640.62219	1664.58081	1619.89832	465.39438	1662.38843	1707.24219	287.61429	1618.22925	1762.51062	84.15195	1578.73804	1804.82922	53.27871	1600.04761	1612.38306	34.74754	1399.53015	1471.67126	637.73730	1450.64490	1393.35962	479.28561	1450.74048	1391.47461	291.27206	1500.96533	1371.50964	77.08068	1551.50842	1414.01038	41.02492	1531.92944	1233.41492	53.94104	1563.37805	1547.97949	1673.16248																																	 
3	0.020	1601.91333	1448.89685	1611.52808	1470.06299	1467.92346	1617.32275	1614.24707	1575.45667	1563.72083	1484.20544	1589.48914	1569.73425	1557.26636	1612.16467	1410.65356	1552.05273	1650.59827	1097.50244	1545.17529	1490.44812	1333.98645	1552.17395	1450.21753	1167.90381	1465.75867	1675.18323	1235.77209	1701.97205	1520.02087	1373.56567	1787.41187	1482.50818	1192.24231	1808.57813	1435.78955	1081.81543	1800.29602	1349.83704	986.17340	1761.17358	1274.67505	899.25354	1812.87598	1290.65576	889.62396	1799.55969	1228.55737	836.02478	1389.88831	1551.67529	1357.05981	1320.69165	1570.82861	1134.32190	1309.42639	1563.34021	1021.07690	1310.88721	1553.99048	884.30450	1348.87195	1528.39050	788.49585	1305.60522	1560.58008	783.91669	1318.29785	1542.81042	712.03137	1676.25891	1489.84937	936.40393	1436.78857	1479.56152	929.78943	1615.42847	1648.19019	960.69440	1468.40063	1641.90588	957.24316	1705.13464	1584.25708	639.71960	1665.34314	1614.66809	464.64130	1662.90454	1704.09082	287.79959	1617.55408	1760.89233	83.76136	1579.13477	1804.65662	54.55701	1600.01099	1612.34192	34.62743	1399.64917	1464.97339	635.55359	1451.79785	1386.85938	477.36060	1452.27136	1378.71973	290.30283	1503.06006	1348.86682	77.26822	1554.81201	1389.21936	40.71912	1532.49622	1208.86865	56.89136	1563.81592	1538.95276	1671.59961																																	 
4	0.030	1602.21948	1439.51379	1610.50769	1470.42114	1458.71863	1615.94666	1614.81372	1565.83044	1562.17566	1484.75012	1580.01697	1567.90234	1557.83008	1602.30969	1409.42371	1552.11743	1641.48596	1096.34216	1545.74927	1480.62476	1332.48718	1552.92700	1440.80481	1166.32520	1466.15747	1665.49902	1234.68872	1702.62891	1510.24475	1371.96130	1787.83081	1473.28101	1190.50366	1808.78638	1426.94238	1079.80078	1799.61462	1340.59961	984.91986	1759.38928	1265.02710	898.91766	1811.13354	1280.57434	888.76886	1797.02234	1217.97473	836.00183	1390.38110	1541.60449	1355.73792	1321.42175	1561.46826	1133.01721	1310.37988	1554.26563	1019.69604	1312.16199	1545.08643	883.02087	1350.36768	1519.48315	787.36255	1307.16260	1551.60046	782.48657	1320.07849	1533.91467	710.66327	1677.00793	1481.35974	935.08807	1437.54004	1470.14636	928.22089	1615.60693	1639.46204	959.25812	1468.59729	1632.74927	955.88452	1705.92651	1577.73108	639.04260	1666.16370	1609.25745	463.91187	1663.38013	1700.79480	287.97144	1617.69983	1760.07251	84.45586	1579.49670	1804.40723	55.91915	1600.14404	1612.28589	34.64174	1399.80774	1458.20410	633.47620	1452.71301	1380.24414	475.09976	1453.62354	1366.89697	289.27591	1505.12891	1327.72302	77.47182	1557.84595	1366.07007	40.80983	1532.92493	1186.08386	60.33519	1564.15857	1529.97107	1669.94116																																	 
5	0.040	1602.48145	1430.04077	1609.46948	1470.61975	1449.60144	1614.74158	1615.38391	1556.13977	1560.65503	1485.35925	1570.63525	1566.15527	1558.28772	1592.35730	1408.24561	1552.31689	1632.39502	1095.28882	1546.39783	1470.68958	1331.09937	1553.66882	1431.50122	1164.94873	1466.48755	1655.71863	1233.68750	1703.25818	1500.47925	1370.43848	1788.11938	1464.23633	1188.74414	1808.81934	1418.32239	1077.76831	1798.82605	1331.63953	983.45361	1757.64404	1255.74670	898.23517	1809.46216	1270.95984	887.74323	1794.56653	1208.02161	835.61102	1390.82190	1531.31592	1354.44067	1322.07983	1551.94360	1131.73779	1311.19678	1544.93921	1018.31348	1313.36987	1535.85962	881.55872	1351.97095	1510.19739	786.12427	1308.66968	1542.47363	781.12469	1321.84705	1524.72705	709.36493	1677.58484	1472.55212	933.57483	1438.25891	1460.70715	926.76019	1615.81897	1630.55542	957.91522	1468.79114	1623.43372	954.59747	1706.47839	1570.90002	638.31549	1666.90869	1603.69543	463.27209	1663.82471	1697.31714	288.28827	1619.27344	1760.63831	87.16919	1579.75269	1803.99866	57.51519	1600.19153	1612.19189	34.51461	1400.11523	1451.41248	631.41583	1453.38562	1373.71143	472.75595	1454.87622	1356.09497	288.17728	1506.79126	1308.63196	77.99398	1560.45764	1344.91382	41.09347	1533.33728	1165.39526	64.07472	1564.55676	1520.86951	1668.49988																																	 
6	0.050	1602.68115	1420.49451	1608.49805	1470.90637	1440.11694	1613.39392	1615.81958	1546.34961	1559.12061	1485.72791	1560.87415	1564.29077	1558.61584	1582.27637	1407.11719	1552.43799	1623.12305	1094.25305	1546.93579	1460.66382	1329.76086	1554.38916	1421.90283	1163.47791	1466.66516	1645.78589	1232.79211	1703.89307	1490.70020	1369.00549	1788.41296	1455.37207	1186.98877	1808.80347	1409.79663	1075.83069	1797.97534	1323.03101	981.88190	1755.90930	1246.92932	897.30200	1807.73120	1261.81335	886.37463	1792.19910	1198.64282	834.80652	1391.31470	1520.98547	1353.21509	1322.63696	1542.14465	1130.54578	1311.93237	1535.48413	1017.04041	1314.52234	1526.44934	880.22614	1353.23840	1500.91150	784.82220	1310.12158	1533.08240	779.79565	1323.45154	1515.43848	708.16687	1678.37122	1463.80127	932.29553	1438.96069	1451.07825	925.26819	1615.98157	1621.56311	956.58698	1468.87207	1613.96289	953.39203	1707.01343	1563.82214	637.60303	1667.71118	1597.93469	462.72470	1664.26453	1693.71057	288.77206	1619.58679	1759.84839	88.48125	1580.13550	1803.68481	59.61721	1600.41406	1612.15503	34.58854	1400.77612	1444.38538	629.59143	1453.96082	1367.30359	470.45880	1456.04321	1346.27979	287.05591	1508.14880	1291.50513	78.46357	1562.47046	1325.85413	41.15803	1533.74548	1147.00183	67.62457	1564.72961	1511.60059	1667.12939																																	 
7	0.060	1602.79224	1410.86450	1607.60059	1471.05054	1430.87134	1612.20398	1616.24695	1536.49573	1557.67004	1486.21582	1551.38342	1562.69470	1558.91504	1572.14270	1406.08496	1552.58142	1613.72437	1093.31982	1547.47693	1450.57495	1328.53210	1554.93982	1412.09131	1161.89978	1466.65039	1635.70239	1231.93994	1704.45947	1480.84521	1367.68823	1788.56982	1446.69702	1185.25317	1808.45947	1401.48230	1073.82410	1797.07190	1314.63818	980.17389	1754.20874	1238.51709	896.11194	1806.04663	1253.16016	884.77618	1789.92542	1189.81470	833.61115	1391.64844	1510.34265	1352.03552	1323.18506	1532.24036	1129.34973	1312.61560	1525.79932	1015.74060	1315.55090	1516.89355	878.99634	1354.55005	1491.30933	783.73474	1311.38843	1523.63147	778.59583	1324.98181	1505.83228	706.84418	1678.98352	1454.67688	931.00653	1439.59094	1441.35376	923.99463	1615.95947	1612.37524	955.26569	1468.88123	1604.32898	952.31061	1707.64233	1556.52209	637.05078	1668.51880	1591.88025	462.25262	1664.64160	1689.86926	289.35400	1619.74316	1758.84167	89.84165	1580.49341	1803.18225	61.82010	1600.25269	1611.98633	34.38261	1401.93542	1436.97607	627.89740	1454.65234	1360.80859	468.28537	1456.99561	1337.11304	285.82166	1509.03491	1276.48438	78.70770	1563.73828	1309.42175	40.73233	1533.91895	1131.29272	71.00489	1564.99255	1502.39868	1665.79883																																	 
